# xmcd CD database file
#
# Track frame offsets:
#	150
#	11701
#	27127
#	45996
#	62138
#	75902
#	90185
#	105787
#	118228
#	131321
#	149902
#	164145
#
# Disc length: 2383 seconds
#
# Revision: 0
# Processed by: cddbd v1.5.2PL0 Copyright (c) Steve Scherf et al.
# Submitted via: CDex 1.79
#
DISCID=91094d0c
DTITLE=Gil Evans - Helen Merrill Dream of You 1957
DYEAR=1957
DGENRE=Jazz
TTITLE0=People Will Say We're in Love
TTITLE1=By Myself
TTITLE2=Any Place I Hang My Hat is Home
TTITLE3=I've Never Seen
TTITLE4=He Was Too Good To Me
TTITLE5=A New Town is a Blue Town
TTITLE6=You're Lucky to Me
TTITLE7=Where Flamingos Fly
TTITLE8=Dream Of You
TTITLE9=I'm a Fool to Want You
TTITLE10=I'm Just a Lucky So and So
TTITLE11=Troubled Waters
EXTD=YEAR: 1957
EXTT0=
EXTT1=
EXTT2=
EXTT3=
EXTT4=
EXTT5=
EXTT6=
EXTT7=
EXTT8=
EXTT9=
EXTT10=
EXTT11=
PLAYORDER=
